Normalized EMG Linear Envelopes
nRows=225
nColumns=4

endheader
time	 med_gas_r	  soleus_r	 tib_ant_r	
2.99395	  0.006597	  0.021527	  0.004142	
3.02722	  0.006487	  0.022070	  0.004158	
3.06048	  0.006394	  0.022525	  0.004162	
3.09375	  0.006341	  0.022832	  0.004143	
3.12702	  0.006334	  0.022982	  0.004099	
3.16028	  0.006355	  0.023009	  0.004034	
3.19355	  0.006368	  0.022957	  0.003963	
3.22681	  0.006343	  0.022862	  0.003901	
3.26008	  0.006276	  0.022743	  0.003859	
3.29335	  0.006181	  0.022617	  0.003842	
3.32661	  0.006078	  0.022497	  0.003849	
3.35988	  0.005975	  0.022382	  0.003876	
3.39315	  0.005864	  0.022262	  0.003916	
3.42641	  0.005732	  0.022120	  0.003961	
3.45968	  0.005575	  0.021938	  0.004001	
3.49294	  0.005406	  0.021710	  0.004028	
3.52621	  0.005254	  0.021443	  0.004043	
3.55948	  0.005154	  0.021159	  0.004051	
3.59274	  0.005134	  0.020903	  0.004060	
3.62601	  0.005196	  0.020731	  0.004075	
3.65927	  0.005313	  0.020692	  0.004099	
3.69254	  0.005443	  0.020796	  0.004130	
3.72581	  0.005549	  0.021006	  0.004168	
3.75907	  0.005614	  0.021259	  0.004211	
3.79234	  0.005651	  0.021510	  0.004258	
3.8256	  0.005680	  0.021744	  0.004306	
3.85887	  0.005713	  0.021945	  0.004355	
3.89214	  0.005746	  0.022064	  0.004401	
3.9254	  0.005774	  0.022038	  0.004441	
3.95867	  0.005799	  0.021866	  0.004478	
3.99194	  0.005834	  0.021641	  0.004517	
4.0252	  0.005893	  0.021521	  0.004566	
4.05847	  0.005982	  0.021624	  0.004630	
4.09173	  0.006101	  0.021970	  0.004707	
4.125	  0.006252	  0.022484	  0.004794	
4.15827	  0.006440	  0.023066	  0.004889	
4.19153	  0.006663	  0.023647	  0.004988	
4.2248	  0.006907	  0.024214	  0.005085	
4.25806	  0.007134	  0.024819	  0.005163	
4.29133	  0.007292	  0.025546	  0.005190	
4.3246	  0.007332	  0.026449	  0.005104	
4.35786	  0.007221	  0.027438	  0.004815	
4.39113	  0.006960	  0.028223	  0.004202	
4.4244	  0.006585	  0.028395	  0.003131	
4.45766	  0.006154	  0.027620	  0.001471	
4.49093	  0.005727	  0.025818	 -0.000859	
4.52419	  0.005357	  0.023188	 -0.003821	
4.55746	  0.005087	  0.020096	 -0.007173	
4.59073	  0.004955	  0.016955	 -0.010400	
4.62399	  0.004995	  0.014221	 -0.012668	
4.65726	  0.005243	  0.012486	 -0.012747	
4.69052	  0.005750	  0.012588	 -0.008886	
4.72379	  0.006600	  0.015666	  0.001280	
4.75706	  0.007912	  0.023092	  0.020529	
4.79032	  0.009820	  0.036261	  0.051439	
4.82359	  0.012428	  0.056217	  0.095593	
4.85685	  0.015790	  0.083233	  0.153104	
4.89012	  0.019892	  0.116586	  0.222684	
4.92339	  0.024634	  0.154631	  0.301897	
4.95665	  0.029809	  0.195054	  0.387056	
4.98992	  0.035078	  0.235041	  0.472991	
5.02319	  0.040029	  0.271328	  0.553546	
5.05645	  0.044273	  0.300451	  0.623255	
5.08972	  0.047551	  0.319607	  0.679166	
5.12298	  0.049778	  0.327965	  0.721258	
5.15625	  0.051029	  0.327597	  0.751039	
5.18952	  0.051519	  0.323083	  0.769771	
5.22278	  0.051562	  0.319659	  0.777971	
5.25605	  0.051499	  0.320853	  0.776397	
5.28931	  0.051574	  0.326981	  0.767214	
5.32258	  0.051849	  0.335315	  0.754097	
5.35585	  0.052215	  0.341879	  0.741143	
5.38911	  0.052482	  0.343913	  0.731353	
5.42238	  0.052467	  0.341485	  0.725495	
5.45565	  0.052064	  0.337153	  0.721967	
5.48891	  0.051267	  0.333969	  0.717861	
5.52218	  0.050188	  0.333460	  0.710811	
5.55544	  0.049031	  0.335037	  0.700544	
5.58871	  0.048036	  0.336815	  0.689160	
5.62198	  0.047400	  0.336742	  0.680149	
5.65524	  0.047217	  0.333220	  0.676950	
5.68851	  0.047463	  0.325383	  0.681789	
5.72177	  0.048029	  0.313461	  0.694936	
5.75504	  0.048757	  0.299048	  0.714378	
5.78831	  0.049476	  0.284718	  0.736031	
5.82157	  0.050036	  0.272989	  0.754645	
5.85484	  0.050327	  0.265447	  0.765245	
5.8881	  0.050273	  0.262603	  0.764699	
5.92137	  0.049823	  0.264197	  0.752905	
5.95464	  0.048958	  0.269280	  0.732999	
5.9879	  0.047756	  0.276079	  0.710216	
6.02117	  0.046445	  0.282346	  0.689737	
6.05444	  0.045349	  0.286398	  0.674695	
6.0877	  0.044729	  0.288024	  0.665506	
6.12097	  0.044634	  0.288299	  0.660745	
6.15423	  0.044872	  0.288494	  0.658661	
6.1875	  0.045159	  0.289284	  0.658141	
6.22077	  0.045306	  0.290899	  0.658652	
6.25403	  0.045322	  0.293668	  0.659658	
6.2873	  0.045359	  0.297999	  0.660278	
6.32056	  0.045567	  0.303728	  0.659457	
6.35383	  0.045968	  0.309558	  0.656382	
6.3871	  0.046433	  0.313304	  0.650833	
6.42036	  0.046764	  0.312952	  0.643367	
6.45363	  0.046798	  0.308000	  0.635236	
6.4869	  0.046474	  0.300238	  0.627968	
6.52016	  0.045829	  0.293394	  0.622755	
6.55343	  0.044971	  0.291758	  0.620054	
6.58669	  0.044065	  0.298525	  0.619648	
6.61996	  0.043332	  0.314650	  0.621002	
6.65323	  0.043003	  0.338521	  0.623554	
6.68649	  0.043224	  0.366393	  0.626798	
6.71976	  0.043956	  0.393470	  0.630291	
6.75302	  0.044982	  0.415432	  0.633710	
6.78629	  0.046045	  0.429866	  0.636861	
6.81956	  0.047017	  0.436772	  0.639625	
6.85282	  0.047960	  0.437804	  0.642023	
6.88609	  0.049004	  0.434806	  0.644471	
6.91935	  0.050171	  0.428764	  0.647805	
6.95262	  0.051272	  0.419949	  0.652642	
6.98589	  0.051981	  0.408980	  0.658475	
7.01915	  0.052010	  0.397707	  0.663532	
7.05242	  0.051265	  0.388914	  0.665786	
7.08569	  0.049897	  0.385016	  0.664211	
7.11895	  0.048244	  0.386914	  0.659194	
7.15222	  0.046693	  0.394002	  0.651970	
7.18548	  0.045536	  0.405066	  0.643880	
7.21875	  0.044867	  0.418929	  0.636031	
7.25202	  0.044562	  0.434333	  0.629225	
7.28528	  0.044376	  0.449683	  0.623904	
7.31855	  0.044093	  0.463477	  0.620177	
7.35181	  0.043657	  0.475255	  0.618092	
7.38508	  0.043206	  0.486075	  0.617933	
7.41835	  0.043009	  0.497894	  0.620051	
7.45161	  0.043330	  0.512175	  0.624224	
7.48488	  0.044303	  0.528604	  0.629169	
7.51815	  0.045864	  0.544584	  0.632854	
7.55141	  0.047761	  0.555734	  0.633422	
7.58468	  0.049642	  0.557295	  0.629948	
7.61794	  0.051157	  0.546053	  0.622475	
7.65121	  0.052036	  0.522047	  0.611582	
7.68448	  0.052128	  0.489161	  0.598095	
7.71774	  0.051409	  0.454016	  0.583207	
7.75101	  0.049994	  0.423459	  0.568733	
7.78427	  0.048147	  0.401918	  0.557012	
7.81754	  0.046249	  0.390102	  0.550127	
7.85081	  0.044682	  0.385781	  0.548676	
7.88407	  0.043706	  0.386040	  0.550971	
7.91734	  0.043403	  0.389575	  0.553634	
7.9506	  0.043747	  0.397678	  0.553577	
7.98387	  0.044692	  0.413405	  0.550063	
8.01714	  0.046207	  0.439535	  0.545257	
8.0504	  0.048226	  0.476603	  0.542835	
8.08367	  0.050647	  0.522264	  0.545725	
8.11694	  0.053455	  0.572351	  0.554583	
8.1502	  0.056887	  0.622796	  0.567844	
8.18347	  0.061443	  0.670978	  0.582947	
8.21673	  0.067654	  0.715719	  0.597673	
8.25	  0.075734	  0.756294	  0.610859	
8.28327	  0.085337	  0.791561	  0.622533	
8.31653	  0.095547	  0.819855	  0.633859	
8.3498	  0.105109	  0.839447	  0.646819	
8.38306	  0.112760	  0.849058	  0.663255	
8.41633	  0.117549	  0.848312	  0.683453	
8.4496	  0.119056	  0.838214	  0.705405	
8.48286	  0.117463	  0.821366	  0.725764	
8.51613	  0.113435	  0.801495	  0.741929	
8.5494	  0.107898	  0.782374	  0.753406	
8.58266	  0.101785	  0.766908	  0.761323	
8.61593	  0.095893	  0.756992	  0.766825	
8.64919	  0.090854	  0.753806	  0.769926	
8.68246	  0.087177	  0.757606	  0.769601	
8.71573	  0.085232	  0.766795	  0.764732	
8.74899	  0.085166	  0.777316	  0.755173	
8.78226	  0.086764	  0.783704	  0.742322	
8.81552	  0.089402	  0.781638	  0.728769	
8.84879	  0.092190	  0.770168	  0.717030	
8.88206	  0.094256	  0.751995	  0.708157	
8.91532	  0.095052	  0.731900	  0.701350	
8.94859	  0.094498	  0.714785	  0.694908	
8.98185	  0.092930	  0.704379	  0.687577	
9.01512	  0.090899	  0.702610	  0.679106	
9.04839	  0.088956	  0.709292	  0.669840	
9.08165	  0.087507	  0.722282	  0.660200	
9.11492	  0.086758	  0.738556	  0.650625	
9.14819	  0.086702	  0.755938	  0.641696	
9.18145	  0.087129	  0.774176	  0.633946	
9.21472	  0.087726	  0.794162	  0.627639	
9.24798	  0.088271	  0.815705	  0.623039	
9.28125	  0.088811	  0.835946	  0.620938	
9.31452	  0.089648	  0.850140	  0.622376	
9.34778	  0.091034	  0.854263	  0.627135	
9.38105	  0.092789	  0.847126	  0.632268	
9.41431	  0.094155	  0.830402	  0.632582	
9.44758	  0.094084	  0.807203	  0.623441	
9.48085	  0.091775	  0.780854	  0.603866	
9.51411	  0.087047	  0.754435	  0.577295	
9.54738	  0.080326	  0.730275	  0.549318	
9.58065	  0.072350	  0.708798	  0.524285	
9.61391	  0.063899	  0.687610	  0.503312	
9.64718	  0.055698	  0.662265	  0.484673	
9.68044	  0.048387	  0.628834	  0.465550	
9.71371	  0.042407	  0.586467	  0.443604	
9.74698	  0.037851	  0.537832	  0.417695	
9.78024	  0.034426	  0.487236	  0.388016	
9.81351	  0.031630	  0.438259	  0.355973	
9.84677	  0.029040	  0.392807	  0.323871	
9.88004	  0.026505	  0.351749	  0.294322	
9.91331	  0.024140	  0.315803	  0.269538	
9.94657	  0.022167	  0.285632	  0.250852	
9.97984	  0.020746	  0.261299	  0.238724	
10.0131	  0.019898	  0.241982	  0.233024	
10.0464	  0.019514	  0.226325	  0.233074	
10.0796	  0.019419	  0.213010	  0.237231	
10.1129	  0.019425	  0.201005	  0.242547	
10.1462	  0.019397	  0.189447	  0.245345	
10.1794	  0.019296	  0.177585	  0.242703	
10.2127	  0.019172	  0.164940	  0.233677	
10.246	  0.019094	  0.151468	  0.219151	
10.2792	  0.019053	  0.137482	  0.200638	
10.3125	  0.018929	  0.123450	  0.179379	
10.3458	  0.018548	  0.109870	  0.156407	
10.379	  0.017787	  0.097229	  0.132932	
10.4123	  0.016650	  0.085898	  0.110255	
10.4456	  0.015281	  0.076023	  0.089360	
